<svg xmlns="http://www.w3.org/2000/svg" width="1920" height="920"><path d="M.5.5h1919v919H.5z" fill="#505050" stroke="#000" class="amcharts-bg"/><path d="M1034.979 496.65l.59-3.79-1.538-2.504 1.001-5.06-4.076-.553h0l-2.306-4.97h0l.393-3.916 3.022-5.31 5.256-.625 2.646-2.02 3.218 5.524 3.736 1.86 4.29-1.628 4.434 2.807 4.523-2.646h0l.554 3.844 3.773-1.466 4.684.751h0l.357 2.664-6.668 11.209-4.917 2.735-.482 6.347h0l-15.858 4.112.966-3.433 1.323 1.126 4.219-1.823 3.432-2.45.376-2.037-4.04-1.824-1.36 2.485-5.273-.572-2.539-2.45-.232-2.27-1.234 5.006 2.092 3.218-4.362-2.342z" stroke-width=".999" fill="#818181" stroke="#505050" class="amcharts-map-area amcharts-map-area-JP-23" aria-label="Aichi"/><path d="M1148.055 277.702l-1.234-4.916-2.485-2.897.912-1.448 2.378 2.003.321-8.886h-2.717l-2.056 5.15.822 3.003-2.931-.233-.036 1.967-3.755-.161-2.11-5.614.251-1.305 4.63 1.985 4.184-5.417 2.538-12.622-3.074-3.236h0l2.931.43 1.842-2.182 1.359 1.448 8.044-.107.894-1.788 2.342-.196 3.97 3.629 1.787-1.502 2.235 1.502 5.327-2.128.43-1.93 2.198-.876-.286 4.2 3.808-.41-.876 8.295h0l-3.254 3.397.537 13.748-3.343.286.125 1.895 2.002 1.18-2.163 2.878 1.412 4.022-3.236 3.826-2.52 6.865 1.394 5.22 3.862 5.4-1.931 2.02-.018 2.145 2.002 1.376-1.27 4.506h0l-4.2 3.11-3.63.322h0l-3.164-1.752-1.037-3.218-9.976-2.735-2.699-1.591-.358-2.092-2.413 1.27-4.487-.734h0l1.43-6.632 3.647-5.542 1.645-14.928z" stroke-width=".999" fill="#818181" stroke="#505050" class="amcharts-map-area amcharts-map-area-JP-05" aria-label="Akita"/><path d="M1185.83 224.498l2.682-3.36 2.485-9.726-2.825-5.542-1.412-.143-3.54 4.326-2.717-.75-5.954 3.324-1.662-.84 1.233-8.206 4.005-10.53 12.425 8.957 3.379-.465 3.647-2.985-2.664 12.246.804 19.022 2.45 8.688 2.11 1.949 1.197-.697 3.826 4.362h0l-5.131 4.791-2.217-1.377-4.273 2.128-1.215-1.93-10.244 6.953-2.503-1.233h0l.876-8.295-3.808.41.286-4.2-2.199.876-.429 1.93-5.328 2.128-2.234-1.502-1.788 1.502-3.969-3.63-2.342.197-.894 1.788-8.045.107-1.358-1.448-1.842 2.181-2.932-.429h0l.126-5.756-2.79-2.914 6.168-6.526 3.29.787 4.755-3.182 1.949-13.23-2.467-1.466 2.556-1.054.715-5.274 4.273 3.647 2.986-2.146 3.128 1.967.5 8.563 2.95 7.992 2.378-.197 2.128-2.288.59-5.81 8.885 6.31z" stroke-width=".999" fill="#818181" stroke="#505050" class="amcharts-map-area amcharts-map-area-JP-02" aria-label="Aomori"/><path d="M995.684 461.448l2.753 1.895-.393-1.913 1.984-.75-1.484-2.307 1.824 1.502 3.79-.733-.698-4.255 2.217-1.77.286 3.63 1.717.768.893-5.006-5.005-8.831 5.828-11.62 4.255-1.95h0l4.201 5.74 3.611 1.215 3.129-.75 3.754 3.718 3.379-.858h0l-.948 4.022 3.683 6.096-1.43 2.217-5.167-.09-5.077 2.253-4.523-1.644-3.379 5.524h0l-4.415-1.448.679 5.685-1.967-.572-3.754 3.7-2.199-1.197-1.86 4.952-2.806-.233-1.555 2.396h0l-8.242-.93-2.574-3.718.322-4.148h0l1.573.304-.054 2.396 4.613.697 3.182-.68.482-1.573-2.216-.608 1.59-1.126z" stroke-width=".999" fill="#818181" stroke="#505050" class="amcharts-map-area amcharts-map-area-JP-18" aria-label="Fukui"/><path d="M807.754 541.7l2.217-2.413-.68-2.914 2.807-3.146 3.701.286 2.485-2.396 6.74 1.949 3.969-3.236-.268 4.684-1.413 1.251 1.574.59 3.468 8.278 2.932.84h0l-.197 3.844-6.811.125-2.879 2.467-2.252 4.416 1.037 1.984-1.395 2.306 2.092 2.736-1.484 2.914h0l-5.65-2.664-.947 2.574-2.681-.304-2.897 2.664.322 1.913-3.826-.143h0l.859-1.967-2.503-3.915h0l1.358-4.058 5.131-4.023.036-4.022-3.826 1.752-5.524-3.486-8.33.375h0l4.11-2.932.34-.983-2.699-.84 4.237-3.611 2.592 3.629 4.166-1.502 1.233-1.913-1.144-1.108z" stroke-width=".999" fill="#818181" stroke="#505050" class="amcharts-map-area amcharts-map-area-JP-40" aria-label="Fukuoka"/><path d="M1134.074 433.452l-1.43 1.358h-5.47l-3.236-2.395-8.617-1.502-2.986 6.543-2.735.125-8.724 5.757h0l-2.378-1.108-.09-3.79-2.449-2.7 1.913-.572-1.108-4.22 1.841-1.215-.393-4.702-6.24.43-2.234-1.323-.107-2.325 1.036-4.737 3.433-2.396.018-1.948 5.971-2.128h0l3.236-.036 1.233-2.985 3.808-1.055.072-2.485 1.68-.268-.482-3.45 2.932-.501 1.68-3.003 5.006 4.862h0l5.06 1.573h0l-1.038 2.754 1.824.786-1.824 2.521-.876 6.132 5.435 2.413-4.04 9.154 3.79 4.165 5.06-.071z" stroke-width=".999" fill="#818181" stroke="#505050" class="amcharts-map-area amcharts-map-area-JP-10" aria-label="Gunma"/><path d="M950.918 496.06l-1.948 1.608-2.164-.393h0l-3.218-5.024 1.252-2.342-1.216-1.52.536-3.253 3.236-5.024 1.645-.34-.215-4.004h0l3.97-1.591-.197-2.843-5.042-11.727h0l5.99-2.503 2.895 1.376 1.466-1.197 7.312.321h0l.036 3.612 1.913 2.52 4.255.108v4.702l-1.627.93-2.038-.984-.626 4.058 5.042 3.11 3.182-.786 1.144 3.844 3.2-.143.465 1.412 3.272.554-.465 3.576h0l-1.287.483.429 2.806 4.237 1.699-1.627.912 1.501 8.849-.965 2.163h0l-.983-2.36-4.112-.733-3.719 2.896-4.612 1.145-7.634-3.075-2.985-2.95-10.298.107zm16.805 19.808l.393 1.376-7.83 3.307-2.7-4.326 12.318-13.533.787 1.484-4.541 6.829 1.573 4.863z" stroke-width=".999" fill="#818181" stroke="#505050" class="amcharts-map-area amcharts-map-area-JP-28" aria-label="Hyogo"/><path d="M1213.076 296.992l.84 1.09-1.484-.071 2.431 2.145-3.146.715 1.895 1.323-2.968 1.395 2.986 1.859-3.808-.411.375 1.734 1.824.465-2.181.322.84 1.52-2.789.303-1.287-2.163.804 3.397-1.412 2.342-1.198-2.986-1.645.16.287 1.342h0l-4.667-1.109-2.18 9.744-4.38-1.788-2.843 3.128-3.165-1.805-.232-3.826-5.238.09-5.72-3.952-1.7.25h0l1.27-4.504-2.002-1.377.018-2.145 1.93-2.02-3.861-5.4-1.395-5.22 2.521-6.865 3.236-3.826-1.412-4.022 2.163-2.878-2.002-1.18-.126-1.895 3.344-.286-.537-13.748 3.254-3.397h0l2.503 1.234 10.244-6.955 1.215 1.931 4.273-2.127 2.217 1.376 5.13-4.791h0l5.203 9.833-1.752 1.93 3.325 2.217-1.52 3.165 4.327 4.237 1.162 13.497-1.52 4.595 2.807-3.2.036 3.61 1.61 1.413-4.148 3.343.768 1.574 2.986-1.449-.769 2.378-5.024 3.665 2.807.84-2.52 1.234z" stroke-width=".999" fill="#818181" stroke="#505050" class="amcharts-map-area amcharts-map-area-JP-03" aria-label="Iwate"/><path d="M903.167 567.766l-.429 1.842-2.878.16-.18 5.793-2.037.858 2.395 5.739-4.934-2.79-2.789 1.842-3.182-2.18-2.842 1.572 3.039-6.185-1.913-.554.286-7.116-1.841-3.093 2.842 1.341 3.45-5.738 3.737-1.95-3.29-5.827 7.33-.876 2.2-7.276 4.093-5.918 16.448-3.7h0l3.057 1.894 3.235-.303 2.557 2.18 1.841-1.805 2.414.286 1.09 5.828 3.522.09 1.127 5.363 3.772.393h0l-3.361 6.4-1.162 6.383-8.582-10.262-6.579-2.038-5.631.894-4.559 4.094-3.915.733-.983 1.913-2.074-.519-1.251 8.939-1.36-.411-2.663 4.004z" stroke-width=".999" fill="#818181" stroke="#505050" class="amcharts-map-area amcharts-map-area-JP-39" aria-label="Kochi"/><path d="M926.712 516.207l3.826-2.18.321-1.717 6.615 1.394 1.913-2.145.93 3.057 3.665-.357-.394 2.145 6.633 3.343h0l-1.037 2.11-8.402-.644-6.115 4.273-2.377-1.734-2.467.447-6.06 3.897h0l-3.362-1.323 1.806-6.4-2.593-2.753 3.397 1.287 3.7-2.7z" stroke-width=".999" fill="#818181" stroke="#505050" class="amcharts-map-area amcharts-map-area-JP-37" aria-label="Kagawa"/><path d="M819.357 608.098l-4.416-3.522-5.167 3.057-3.396-1.841h0l7.383-11.638-1.001-2.557 1.43-.34-1.609-.983 4.362-4.326-7.061.643 4.88-3.95.376-3.344-5.757-4.934-1.591-3.987h0l3.826.143-.322-1.912 2.896-2.664 2.682.304.947-2.575 5.65 2.664h0l5.148 3.468 1.198-2.646-1.27-3.486 4.345-.554 3.737 5.435 1.43 6.936 2.503 2.27h0l-2.253.287-5.31 9.69-3.343 1.841.018 4.487 3.236 4.648-2.467 2.95 2.36 4.04-3.558-.446-1.966 2.342-7.92.5zm-10.763-17.484l-1.054 5.166-6.257-1.054-.465 3.986-6.365 7.259-.715-3.504-1.305-.376 2.789-11.209 4.988-1.43.626 3.987 3.986-2.736 3.772-.09zm-9.242 12.729l.894-2.324.786 4.737-1.662 2.718-2.289-3.45.25-1.556 2.02-.125zm10.136-14.213l-1.59.197-.394-1.556 1.716-1.59.268 2.949z" stroke-width=".999" fill="#818181" stroke="#505050" class="amcharts-map-area amcharts-map-area-JP-43" aria-label="Kumamoto"/><path d="M982.973 484.17l.447-3.575-3.272-.554-.465-1.43-3.2.143-1.126-3.844-3.2.787-5.024-3.129.626-4.04 2.038.983 1.627-.93.018-4.702-4.255-.107-1.913-2.52-.036-3.612h0l2.2.5 10.118-5.309 3.11 3.361-4.093 6.561 1.59-1.752 1.091.608-.912 1.287 2.86.5.251 2.468 2.36-.483-2.163-2.324 1.52-1.216 2.556-1.251.75 1.466h0l-.321 4.148 2.574 3.718 8.224.93h0l2.86 3.271-1.072 9.905 1.68 6.704 2.575.16 2.932 4.148h0l.804 2.145h0l-1.645 1.198-2.503-1.859-2.628 2.163-3.432-.93-.93-2.18h0l.5-1.109-4.594-7.115-1.34-.036.214 1.967-1.412.464-1.806-3.182-3.861-1.073z" stroke-width=".999" fill="#818181" stroke="#505050" class="amcharts-map-area amcharts-map-area-JP-26" aria-label="Kyoto"/><path d="M1029.615 516.297l.84-1.931-1.018-.59-3.147 3.826-1.144-1.305-.912 1.68-1.394-1.27.09 2.11-7.17 2.056-.232 4.023-1.734-.787-1.68 1.198 2.824 2.253-.304 2.145-6.078 3.629-3.165 6.936h0l-2.306-.482-3.04-3.468.126-3.433h0l5.614-5.757 2.896.447-.268-7.204 1.305-2.432-1.234-2.056 1.198-.643-2.074-3.308.894-1.698 3.897-.572.698-1.68-2.521-3.04-3.79-1.144 1.358-3.79-1.43-2.807h0l-.804-2.163h0l2.395-.983.715-3.737 4.792 1.842 4.165-2.02 3.147-10.548-1.395-2.807h0l3.951-1.698 3.04 4.451 1.93.215h0l2.306 4.97h0l-3.003 1.59-.179 3.827-3.45 5.274-.376 6.972 10.566 4.63 3.218 3.987-2.02 1.198 1.323.858-1.413 4.398-4.183-.376 2.914.197-.733-1.377-4.005.394z" stroke-width=".999" fill="#818181" stroke="#505050" class="amcharts-map-area amcharts-map-area-JP-24" aria-label="Mie"/><path d="M1006.732 497.185l1.43 2.807-1.358 3.79 3.772 1.144 2.52 3.04-.697 1.698-3.897.572-.894 1.698 2.056 3.308-1.18.643 1.234 2.074-1.288 2.432.25 7.204-2.895-.447-5.596 5.757h0l-8.01 1.073-1.054-1.252 1.27-3.271-3.254-4.899 3.343-4.898 3.11-.894-3.039-6.347h0l1.43-2.628-1.126-6.865 2.735-7.348h0l.93 2.182 3.432.93 2.628-2.164 2.503 1.86z" stroke-width=".999" fill="#818181" stroke="#505050" class="amcharts-map-area amcharts-map-area-JP-29" aria-label="Nara"/><path d="M802.784 575.954l2.557.394 1.573 3.057-1.055 4.827-6.328 3.432-1.234-3.647 2.628-3.093-.965-1.716-3.326-.054-4.666 1.109-2.02 4.433-5.56 3.844 3.272-6.847-1.967-3.54-1.323.554-1.609-1.555-2.199-4.612 1.109-5.15 1.734-.482.75 3.379 2.95.536-.947 5.364 2.092 1.466 1.734-2.02 3.933 1.394-2.735-3.218.018-4.309-6.776-2.163-.572-3.593-2.002 2.664.375-2.664-4.38-2.181 1.52-6.919 1.054.822 1.61-1.573.214 1.913 3.718-.804.376 1.501h0l-1.055 1.77 1.93 4.702 4.31.858-.573 3.129 4.827 4.326 5.006 1.216h0l-2.717 3.343 1.52 1.323 3.2-1.216zm-32.752-61.32l.626-2.038-1.001 1.27-3.254-.644 3.594-7.312-1.484-1.591 1.198-3.344 2.574-.125 1.967-2.342 1.716 1.591-.858 4.827-3.665 4.345 1.645 4.38-1.574 1.323.751.983-2.288.876-1.627 6.186-2.45 1.948-1.626-.786 1.359-9.726.643 1.627 3.754-1.448zm-17.216 66.773l1.788 4.183-4.308-.16.071 2.985-1.305-1.43-4.845-.215.483-1.466 2.092-.196-.501-5.4 1.806 1.288 3.575-2.02 1.144 2.43zm9.26-12.854l-.553 2.77 2.735-1.107.626 1.269-3.057 2.664-1.323 4.13-.84-5.4-1.556.054 1.984-1.34 2.325-7.885-.34 4.845zm14.786-13.855l1.072-1.27.537 2.2-3.737 6.024-3.307 1.86-.608-1.467 1.466.751.34-3.54 4.237-4.558zm-23.438 22.418l1.484.93-.769 2.431-1.34-.876.625-2.485zm5.256-.68l-1.68-1.644 1.269.179-.322-1.555 1.61 1.466-.197 2.199-.68-.644zm4.72-18.216l-.393 1.948-2.039-.429 2.432-1.52zm-7.115 20.72l-1.824-3.218 1.484 1.609.983-1.323-.643 2.932zm16.447-23.956l.983-2.968v3.737l-.983-.77zm5.953-4.577l-2.77.43 2.09-1.663.68 1.233zm-18.128 12.336l-.536-1.305 1.841.16-1.305 1.145z" stroke-width=".999" fill="#818181" stroke="#505050" class="amcharts-map-area amcharts-map-area-JP-42" aria-label="Nagasaki"/><path d="M716.614 834.733l5.935-4.38-3.11-1.234-.608-4.112 4.29.733.287 2.467 1.644-.196 6.258-6.383.59-2.842 2.091 1.055.697 3.647-3.146 4.684-3.147.053.143 2.467-2.055 1.288-2.056-.68.59 1.198-3.647 3.272-4.184.214 3.165 5.363-2.986-1.34-2.36 4.987 2.181 1.36-5.452 3.593-1.413-4.863 4.327-4.255-1.52-4.898 3.486-1.198zm62.715-75.319l-1.967 2.557-2.824.393.178 3.361-3.378 2.396.375 1.805-2.932-1.662-.75-2.45-4.9-1.716 3.219-.804-.358-1.144 4.362-2.646 5.864-1.252 1.287-2.538 2.771-.555.537 2.485 1.287-1.787-1.02-1.663 1.592-1.108.93 4.004-4.273 2.324zM580.1 916.362l-2.164 4.005-7.651-2.02 1.484-1.628 1.412 1.127 1.144-4.541 5.775 3.057zM757.375 779.83l2.378 3.736-1.734 3.665-1.842.34-2.002-2.45-.054-4.415.751-2.36 2.575.071-.072 1.413zM588.2 912.858l1.895-.233 4.148-5.774-3.147 5.506-.34 4.47-3.02.661-1.538-1.34 1.108-1.86-2.628-.68 1.734-2.02 1.788 1.27zm38.151-11.835l1.126.16-.643-6.31 2.485 4.559 4.13 2.61-5.114.733-1.984-1.752zm118.958-101.706l-2.485 1.395-1.27-2.36 6.65-2.003-2.895 2.968zm20.88-31.482l1.234-.608 3.111 2.235-.125 1.626h-4.434l-1.43-4.415 1.234-.519.41 1.68zm-86.384 72.261l-2.074-1.788 2.593-.68 1.412 1.646-.43 2.145-1.5-1.323zm115.043-80.592l-2.146 3.343-1.93-.268.089-1.305 3.987-1.77zm-172.502 139.16l.93-1.842 2.038 1.966-2.968-.125zm99.06-86.707l2.503-1.985-3.683 4.076 1.18-2.091zm-4.72 12.139l.43.965-2.771-.358 2.342-.607zm4.291-8.707l.09 1.77-1.001-1.055.911-.715z" stroke-width=".999" fill="#818181" stroke="#505050" class="amcharts-map-area amcharts-map-area-JP-47" aria-label="Okinawa"/><path d="M984.743 506.303l.518-5.22h0l.965-2.163-1.501-8.85 1.627-.912-4.237-1.698-.43-2.807 1.288-.482h0l.34 1.322 3.861 1.073 1.806 3.182 1.412-.464-.215-1.967 1.341.036 4.595 7.115-.519 1.108h0l-2.735 7.33 1.126 6.865-1.448 2.628h0l-18.002 4.72-1.484-1.806h0l4.594-1.52 7.098-7.49z" stroke-width=".999" fill="#818181" stroke="#505050" class="amcharts-map-area amcharts-map-area-JP-27" aria-label="Osaka"/><path d="M935.633 504.39l-2.52 1.949-.841 3.075-7.741-.984-1.109-1.394-6.9 2.825-1.234-1.502h0l-2.378-6.06-.196-7.885-2.86-3.575.84-5.006-1.806-2.18h0l1.055-1.95 3.915-.733-.107-2.806 3.54-.286 3.11-6.544 5.31 1.145 2.842 2.95 6.347-4.38.071 1.894 4.327 1.127 1.644 4.773 7.884-3.057h0l.215 4.005-1.645.34-3.236 5.023-.536 3.254 1.216 1.52-1.252 2.341 3.218 5.024h0l-2.449.071-3.808 5.131-4.916 1.895zm9.403 5.077l.573-1.162-2.736 2.664.036-2.36-3.361-.071.804-1.538 6.58-2.413-.394 5.47-1.502-.59z" stroke-width=".999" fill="#818181" stroke="#505050" class="amcharts-map-area amcharts-map-area-JP-33" aria-label="Okayama"/><path d="M823.433 566.282l1.484-2.914-2.092-2.735 1.395-2.306-1.037-1.985 2.252-4.415 2.878-2.467 6.812-.126.197-3.843h0l8.348 1.072 2.825-4.13 3.003-.893 5.096 4.433.321 5.131-1.269 2.45-2.45-.716.358 2.074-2.002 1.234-3.003-.68-.215 1.27.626 2.681 2.681.912 3.361-1.448 2.396 1.716 5.292-1.197-3.325 5.881 3.182-.322-1.359 2.307 1.77.518 1.055-1.216 1.055 1.502 1.126-1.466.125 1.43-2.735.43-1.127 2.967 6.633 1.949-3.772.483 1.394 1.34-1.448 1.36 1.18 1.25-2.556 1.824-1.645-.84-.447 2.735h0l-1.001-.018.465-2.789-2.932-1.108-2.575 2.628-4.916.75-3.11-3.432-3.612 1.252-1.555-1.055h0l-2.503-2.27-1.43-6.937-3.737-5.435-4.344.554 1.27 3.486-1.199 2.646-5.184-3.522z" stroke-width=".999" fill="#818181" stroke="#505050" class="amcharts-map-area amcharts-map-area-JP-44" aria-label="Oita"/><path d="M786.748 556.825l1.198 1.716 1.144-4.469-3.129-2.396.859-1.448 1.805 1.305-.465-4.29 2.968.25 1.34 4.023 2.45-.537h0l8.331-.375 5.524 3.486 3.826-1.752-.036 4.022-5.13 4.023-1.36 4.058h0l-2.341-.018-1.931-1.949-3.54 3.755 2.52 6.257h0l-5.005-1.216-4.827-4.326.572-3.129-4.308-.858-1.93-4.702 1.054-1.77h0l.411.34zm-2.878-16.054l-2.825-2.45 2.163-3.986 2.45.894-.537 2.825 1.395.482-2.646 2.235zm.429 11.889l.661-1.788 1.395 1.698-2.11 1.055.054-.965z" stroke-width=".999" fill="#818181" stroke="#505050" class="amcharts-map-area amcharts-map-area-JP-41" aria-label="Saga"/><path d="M1019.765 476.77l1.394 2.824-3.146 10.548-4.183 2.02-4.792-1.842-.715 3.737-2.395.983h0l-2.932-4.147-2.575-.161-1.68-6.704 1.072-9.905-2.86-3.271h0l1.573-2.396 2.807.215 1.86-4.935 2.198 1.198 3.755-3.7 1.966.572-.68-5.685 4.434 1.43h0l1.645 2.038-.214 2.86 2.932.894 1.483 6.043-2.234 6.15z" stroke-width=".999" fill="#818181" stroke="#505050" class="amcharts-map-area amcharts-map-area-JP-25" aria-label="Shiga"/><path d="M875.01 483.563l3.754-5.47 8.045-5.096.965-4.273-1.555-1.358 12.121-3.558-.125-1.162 2.092.214 2.395-2.86 1.627 1.895 6.525-.322-2.896 1.448 2.914 2.986h0l-.554 8.384-5.542 2.468 1.52 1.984-1.878 4.005h0l-9.493-1.09-4.29 5.952-3.647 2.253 1.93 2.77-5.774 2.146-3.36-.965-5.042 1.734-2.128-1.055-3.683 4.434.984.608-1.627 5.005-2.718 2.664.876 1.126h0l-2.306 2.074.5 2.163-2.001 2.825-1.234-1.126-3.558 1.412-1.859-2.896.983-2.753-3.343.071-1.09-2.95 1.984-2.896-1.484-4.54h0l4.756-.751 9.35-10.137 7.866-5.363zm32.358-48.86l-1.555-1.001-.107-3.307 3.486-2.324 3.718 3.2-.536 2.681-2.253.304.787 1.395-3.54-.948zm-82.272-59.336l.732 2.36-1.358 1.573-2.306-.965-.608-1.716 3.54-1.252zm76.98 61.338l-1.162 3.594-2.091-1.448.429 2.395-1.842-1.144 2.342-3.128 2.325-.269zm2.039 2.468l-2.36 2.252-.161-2.914 1.698-.84.823 1.502zm-4.63 2.306l2.18 1.573-2.11-.286-.07-1.287z" stroke-width=".999" fill="#818181" stroke="#505050" class="amcharts-map-area amcharts-map-area-JP-32" aria-label="Shimane"/><path d="M960.16 536.016l-11.637 7.061-3.2 4.541h0l-3.773-.393-1.126-5.363-3.522-.09-1.09-5.828-2.414-.286-1.841 1.806-2.557-2.181-3.236.304-3.057-1.895h0l1.037-5.56h0l6.06-3.898 2.468-.447 2.378 1.734 6.114-4.272 8.402.643 1.037-2.11h0l5.024-1.412 1.34 2.539-1.126 7.258.858.948.644-1.001 2.503 3.593-2.718 3.093 4.023.447-.59.769z" stroke-width=".999" fill="#818181" stroke="#505050" class="amcharts-map-area amcharts-map-area-JP-36" aria-label="Tokushima"/><path d="M910.854 466.007l2.61.518 6.651-3.396 5.792 1.34 13.033-1.126 8.635-3.718h0l5.042 11.727.196 2.843-3.969 1.59h0l-7.884 3.058-1.644-4.773-4.327-1.127-.071-1.895-6.347 4.38-2.842-2.95-5.31-1.144-3.11 6.544-3.54.286.107 2.806-3.915.733-1.055 1.95h0l-4.523-.805h0l1.877-4.005-1.52-1.984 5.542-2.468.572-8.384z" stroke-width=".999" fill="#818181" stroke="#505050" class="amcharts-map-area amcharts-map-area-JP-31" aria-label="Tottori"/><path d="M846.835 527.542l-1.055-.733-1.949 2.199-1.055-1.645-4.451 4.434-3.897-1.395.143-1.412-4.04-2.289-5.114 5.435.43-5.613-1.896-2.718 2.557-3.307-2.342-4.255 1.233-2.735 4.72-.733-2.735-1.538.5-1.466 4.506.984 1.948 1.984 8.224-1.895 7.383-10.244 3.022-.787h0l1.484 4.541-1.985 2.897 1.09 2.95 3.344-.072-.983 2.753 1.859 2.896 3.557-1.412 1.234 1.126 2.002-2.825-.5-2.163 2.306-2.074h0l3.057 10.226 2.878.215h0l-.75 9.547-2.968 1.93.465 5.239-.876-1.913-9.672-5.954-.894 2.056-1.627-.357 2.002-2.11-2.234-1.27-7.938 2.575-.983-1.072zm27.066 6.471l-2.538.555-1.144-2.968 2.11-1.699 2.43 2.02 5.954-1.287-3.522 1.699.018 2.038-2.539-1.466-.769 1.108z" stroke-width=".999" fill="#818181" stroke="#505050" class="amcharts-map-area amcharts-map-area-JP-35" aria-label="Yamaguchi"/><path d="M1159.71 127.816l4.935-4.88-7.205-9.53.733-5.398 2.932.196 2.396-2.091 10.369 8.58 7.866-2.127-.25 2.092 5.435 2.485 3.933-2.181 5.291-6.704-3.325-19.2 1.824-3.755 7.616-4.04 1.662-3.38.107-17.537 3.826-6.722 1.287-9.386-1.912-12.71-5.864-16.93 2.932-5.758-.465-4.773 2.27 2.592 3.147-.5 4.952-5.793 20.97 24.672 6.99 12.925 8.975 10.119 15.625 12.872 6.615 3.468 16.304 5.31 5.775.393.41 3.665 2.61 3.647 5.74 1.806 10.69-.215 13.999-12.89 5.363-7.08.804 3.987-7.955 14.195-2.896 8.939 10.834 22.883-4.452-2.288-.054 2.914 1.538-1.198.983 2.396 5.274.608 6.722-6.275 5.864.357-2.432 2.521-6.453 2.378-1.43 5.238-3.594-.733-9.779 2.145-6.043 7.848-3.396-.178-1.949-3.558-3.433 3.272 2.003 2.753-12.05-.858-4.04-2.539-5.47.965-10.405 6.633-9.422 9.422-7.294 10.369-2.735 5.917.482 5.56-3.075 12.532-6.614-6.65-23.116-11.567-7.526-6.65-5.74-1.681-7.222-5.792-7.526-1.02-5.667 1.86-11.353 7.955-4.398 5.703-2.502-1.698 1.734.626.214-1.448-2.413-.733-1.556-4.237-5.792-5.954-8.349-.214-5.578 8.152-.768 8.027 9.046 6.347 7.455-.143 7.043 9.493 8.027 5.077-7.723 4.63-6.49-3.039-2.913 1.591.536-3.11-2.592-.537-1.502 3.593-5.488 2.664-.555 7.044-5.9 2.467-2.305 3.933-5.47-2.324-2.075-6.4 3.147-10.476 1.877-.912-.161-8.385-3.397-5.256-3.522-.858-2.485-3.933-2.038-.733-1.037-3.79 2.825-5.542-.822-8.724 1.644-2.593 6.097-1.215 3.575-2.932 1.52-3.433 2.485 2.753 1.59-.41 3.076-6.973zm26.317-109.822l-.161-2.2 2.288-2.234 3.7 2.163.913 3.236-3.236 2.664-3.504-3.63zm-56.994 145.112l-.519 3.97-1.912 2.18-1.735-5.989 5.578-3.557-1.412 3.396zM1183.29 7.964l-1.162 4.863-2.11-9.564 1.163 1.52 1.752-.841.357 4.022z" stroke-width=".999" fill="#818181" stroke="#505050" class="amcharts-map-area amcharts-map-area-JP-01" aria-label="Hokkaido" cursor="pointer"/><path d="M886.487 519.997l-1.394-1.251-2.592 3.128 2.216 2.182-4.505.911 2.592-6.65-1-4.827-2.343-1.162-4.076 1.86-3.021 4.719h0l-2.878-.215-3.057-10.226h0l-.876-1.126 2.717-2.664 1.627-5.006-.983-.607 3.682-4.434 2.128 1.055 5.041-1.734 3.361.965 5.775-2.145-1.931-2.771 3.647-2.253 4.29-5.953 9.494 1.09h0l4.523.805h0l1.805 2.18-.84 5.007 2.86 3.575.197 7.884 2.378 6.06h0l-3.057 4.56-4.29-.912.947-.733-1.073-1.448-5.31 2.342-.41 1.752-6.598.786-1.609 1.484-1.716-.858-1.34 3.04-4.38 1.59z" stroke-width=".999" fill="#818181" stroke="#505050" class="amcharts-map-area amcharts-map-area-JP-34" aria-label="Hiroshima"/><path d="M1101.269 446.967l-.393-3.629h0l8.724-5.757 2.735-.125 2.986-6.543 8.617 1.502 3.236 2.395h5.47l1.43-1.358h0l1.502.733h0l1.234 5.095 1.394-.447h0l4.362 10.119-1.019 2.86h0l-3.683-.876-5.113 2.199-2.61.143-.5-1.555-5.078 1.394-3.074-2.896-9.815-2.735-2.807 1.823h0l-1.949.519z" stroke-width=".999" fill="#818181" stroke="#505050" class="amcharts-map-area amcharts-map-area-JP-11" aria-label="Saitama" cursor="pointer"/><path d="M1114.73 491.5l-4.111 5.489-.34 3.611-5.685 2.199-3.075-3.593 1.341-2.754-.733-5.488 1.198-1.09-.966-2.736.876-2.199 3.665.286.483-1.269-3.182-2.843-4.148-.911-4.898 1.466-1.287 4.773-5.489 2.968-1.108 4.183-4.917 6.704 1.198 2.95-7.991-2.825-18.092-.536h0l.482-6.347 4.917-2.753 6.668-11.209-.357-2.646h0l11.423-6.722.018-7.955 2.682-3.844h0l1.68 5.685-.5 8.01 3.933.625 2.467 5.703 3.504-.912-.715-4.755.68-4.148 1.77-1.627 3.664 3.772 8.117-1.895h0l2.967.376-.465 8.277 1.484 2.181 2.718.376h0l-1.448 3.54 2.735 4.308z" stroke-width=".999" fill="#818181" stroke="#505050" class="amcharts-map-area amcharts-map-area-JP-22" aria-label="Shizuoka"/><path d="M1115.428 457.175l-.644 5.918-6.167 3.754-.715 2.02h0l-8.117 1.895-3.665-3.772-1.77 1.627-.68 4.148.716 4.755-3.504.912-2.467-5.703-3.933-.626.5-8.009-1.68-5.685h0l-1.305-3.164 1.788-1.967-1.574-1.537 1.735-3.522 1.644.894 3.165-4.845 2.556 1.037.84 2.145 4.398-.84.966 2.038 3.754-1.68h0l5.65 2.86 1.948-.519h0l2.807 5.793z" stroke-width=".999" fill="#818181" stroke="#505050" class="amcharts-map-area amcharts-map-area-JP-19" aria-label="Yamanashi" cursor="pointer"/><path d="M880.927 559.024l.411-.769.626-.464.626.071.036-.357-.519-.233-.68-.286-.84.286-.5.411-.787-.447-.357.68-.715-.233-.25-.41h-.823l.233-.805.303-.233.25-.179.555-.214-.054-.304-.071-.447-.537.054-.393-.662.626-.518-.125-.644-.483-.125.626-.572.286-.072.393-.482.161-.823-.411.233-.715-.09.304-.733-.912.18-.59-.644-.411.107-.626.518-1.537 1.073-.93.25-.59.662-1.967.59-1.019.947-.286.554-.554.501-.912.107-.053-.429.625-.393.018-.304-.911.036-1.52 1.269-.912.554-.447.018 3.844-3.236.912-.536 1.18-.644 1.019.143.554-.59.554-.25.822-.071.43-.25.178-.323 2.074-.93 1.538-1.143 1.34-.715.376-.894 1.484-1.77 1.126-.823 2.771-1 2.181-1.628.375-.429.662-1.752.804-.715-.41-1.287-.019-1.77.358-1.86.429-1.179.769.304.768-.519.608-2.18.125-1.109 3.165-2.986 1.984-.303-.107-.805.465-.304-.268-1.001.643-1.073 1.341 1.556 1.752 2.52 1.287 2.646.68 1.073.232.769.894.643 1.698-.572 2.467-.608.662-.178-.215-.823 2.146-.357.429-.465.679.09.661.59 1.252-.537 1.216.179.858.178 1.305.59.894-.125 1.233-.894.358-.608.25-.786.286-.143.715-.483h0l.59.483 1.699.232 1.09.608h0l-.518 1.216.482.876v1.86l-.393 1.09-.608.518h0l-.733.018-1.162-.018-.84.59-.912-.608-.375.072-1.001 1.376-.376.483-.357.286-3.701.125-1.43-.232-2.628.035-.358.304-.393 1.305-.322.197-.93.34-.607-.608-.358.036-.465 1.233-.697 1.413-.715.715-.626.894-.107.983-.393.5-1.091.18-.322 1.161-.447 1.305-.34.823.52.518.07.93-.643.482-1.019 1.574-.018.482-2.145.608-.376-.232-1.18.143-2.324-.376-.733.197-.572.536.626.572.268 1.681.268.358h.358l.411 1.287.805.25.482.644.072 1.019-.143.393-1.43.822-2.164.751-.554.93-.322 2.038-.768.053-.304.269-.25.84-1.27 1.609-.34.125-1.698-1.645-.197-.482-.357.125-.25.518.518 1.109-.054.464.84.912.376.09.16.536-.357 1.645.537.554.375 1.68-.018 2.378-.733.179-.09.68h0l-.571-.215-1.68.625-.251-.482-.447-.608-.16-.322-.823.286-.34.161-.465.107-.035.519.035.232-.34.465-.625-.054-.483.018-.447-.071.143-.662-.572-.68.179-.214.644-.071.625-.465-1.126-.608.5-.411.43.25.268.072.25-.179-.375-.697.178-.465-.536-.25-.214-.072-.018-1.484-.5-.071-.627.59-.75-.43-.68.305-.232.143-.161.375-.09.518-.643-.321.59-.715.036-.68.268-.625.393-.09.358.197.25.608.59-.108 1.019-.393.232-.483-.536-.214.375-.697.68-1.073-.036-.59-.697-.16-.268.017-.394.143-.268.232-.393-.25.09-.447-.644-.304.268-.59.518-.625-.93-1.002.912.358 1.234.608.518.59.626.036-.143-.662-.357-.733.554-.483 1 .072.412-.054.161-.286-.25-.608-.5.072-.68-.608.697-.375.072-.555-1.43.09-.877-.34z" stroke-width=".999" fill="#818181" stroke="#505050" class="amcharts-map-area amcharts-map-area-JP-38" aria-label="Ehime"/><path d="M1165.986 429.483l1.412 9.654 9.243 15.929h0l-6.454-5.47-7.795-3.076-10.976 3.236-7.312-4.076-5.9-6.847h0l-1.394.447-1.234-5.095h0l4.237-1.663.983-3.021 2.02.5 2.235-3.218 7.795-1.412 2.02-5.399-1.055-6.722 2.36-1.627-1.055-9.44h0l7.205 6.169 4.595-3.38-.215-3.146 1.019 1.842 6.132 1.859h0l.072.036h0l.053.018h0l-6.436 16.447.286 5.149-1.841 2.306z" stroke-width=".999" fill="#818181" stroke="#505050" class="amcharts-map-area amcharts-map-area-JP-08" aria-label="Ibaraki" cursor="pointer"/><path d="M1107.902 468.867l.733-2.02 6.167-3.754.644-5.918h0l4.058 2.932 5.435.984 2.413 3.378.876-3.665-1.412-1.108 2.628-1.198 4.791 2.27 1.448 2.29h0l2.003.947-4.72 2.02 2.092 1.126-2.36 1.967.733 4.076 3.629 1.805-3.2 3.04.733 1.984-2.396-.054-1.358-6.579-4.541-1.108-8.17 1.788-2.074 1.662-1.43 4.362h0l-2.718-.375-1.484-2.181.465-8.277-2.985-.394z" stroke-width=".999" fill="#818181" stroke="#505050" class="amcharts-map-area amcharts-map-area-JP-14" aria-label="Kanagawa" cursor="pointer"/><path d="M1030.491 395.23l-.107-2.307-1.752-.143 2.432-8.474 14.284-7.044 6.471-1.34 1.145 3.486-3.826 1.072.554 3.97-1.18 1.751-4.791.805-3.093 4.183-2.199-2.181-2.61 3.88.965.41-1.483 2.79 2.002-.859 2.02 1.985 2.7-2.378.071 6.24h0l-3.522.285-2.503 2.45-3.307 12.156 1.144 3.058-.84 10.994h0l1.877 2.503-2.771 3.415-.5 3.271h0l-3.38.858-3.754-3.718-3.128.75-3.612-1.215-4.2-5.739h0l6.131-5.506 9.958-14.284 2.378-6.794-1.574-8.33z" stroke-width=".999" fill="#818181" stroke="#505050" class="amcharts-map-area amcharts-map-area-JP-17" aria-label="Ishikawa" cursor="pointer"/><path d="M802.91 635.987l2.502-7.58-5.881-7.616 2.02-4.827-1.627-4.451 1.019-1.931-1.287-1.037 1.877-1.734 4.076.661.787-1.716h0l3.396 1.842 5.167-3.057 4.416 3.521h0l-.858 1.788 6.65 6.508-.268 3.95 3.629 1.055 2.36 5.99.894-1.038 3.826 1.466.429 4.255-1.323 2.467h0l-2.092-.75-3.003 3.343-.143 1.43 3.164 1.09-1.109 2.038 1.95.269-4.077 2.091-1.788 3.594-10.62 5.864-.267-3.129 3.218-2.485 2.091-8.331-3.7-5.256.196-3.468-3.968-1.413 3.075-1.984 1.144 2.592 1.895.161 2.02-3.683-.876-1.966-4.773-1.395-1.502 1.198-3.468 8.063 1.609 7.795 3.521 2.163-2.77 4.47-2.45-.358-2.038-3.504-8.653.107-1.466-3.075 1.288-.983-2.754-2.646.966-1.18 2.324 1.77 1.251-.948zm8.295 39.26l6.096 3.504-.68 3.146-4.558 2.896-3.022-.5-2.145-5.417 4.309-3.63zm15.84-4.774l-.323-3.683 4.166-6.99.786 5.882-4.094 8.796.68 3.325-3.844 2.235-.858-5.024 3.486-4.54zm-43.14-43.532l-1.376.84-.965-1.537 4.487-5.453-2.146 6.15zm3.862-8.045l.054-1.859 3.379 1.34-1.681 1.61-1.752-1.09zm13.98 56.064l1.216 1.36-1.913.571-2.395-2.77 3.092.84z" stroke-width=".999" fill="#818181" stroke="#505050" class="amcharts-map-area amcharts-map-area-JP-46" aria-label="Kagoshima"/><path d="M1044.454 408.71l7.562.965 2.092-1.985 1.251-5.238 7.366-2.342h0l2.717 1.895 1.806 7.598h0l-.358 7.473-2.11 1.251.394 2.181-4.112 5.578h0l-6.472-1.609-.5-1.394-2.414 1.43-.447-1.645-5.095.393-6.65 7.849-.751-2.825-2.717-1.323-2.932 3.04h0l.84-10.995-1.162-3.057 3.307-12.157 2.503-2.45 3.522-.286h0l-2.378 4.094z" stroke-width=".999" fill="#818181" stroke="#505050" class="amcharts-map-area amcharts-map-area-JP-16" aria-label="Toyama" cursor="pointer"/><path d="M998.884 549.013l-2.217 3.343.125-1.967-8.992-1.823-6.329-6.025 2.181-1.949-7.258-4.344-1.216-2.52-3.343-.108.375-4.165 3.683-2.289-3.325-1.805 1.627-2.628 2.092-.501-4.13-5.792.876-1.127h0l1.484 1.806 18.002-4.72h0l3.04 6.365-3.111.876-3.325 4.898 3.253 4.899-1.269 3.271 1.055 1.27 8.009-1.091h0l-.125 3.433 3.04 3.468 2.305.482h0l-.858 2.86-1.716.466.769 2.646-4.702 2.77z" stroke-width=".999" fill="#818181" stroke="#505050" class="amcharts-map-area amcharts-map-area-JP-30" aria-label="Wakayama"/><path d="M1060.168 473.784l1.484-2.11-.465-2.27 1.556-.519-1.27-1.752 1.162-2.878-2.932-.393-.357-6.043-2.825-4.452-4.666-2.288 1.877-3.307 3.397-.161 4.166-5.077.697-2.807-2.092-2.79 3.397-7.812-2.235-3.039h0l4.112-5.578-.393-2.18 2.11-1.252.357-7.473h0l3.844-4.22-.144-2.305 5.131.536-.321 3.325 1.698 1.234 5.685-3.11 2.467 1.143.465-2.95 3.432-3.754 4.595-1.448 1.448.411.822 4.452 3.594 2.753.125 4.934h0l-5.971 2.128-.018 1.948-3.433 2.396-1.036 4.737.107 2.325 2.235 1.322 6.239-.429.393 4.702-1.841 1.216 1.108 4.219-1.913.572 2.45 2.7.089 3.79 2.378 1.108h0l.393 3.63h0l-3.754 1.68-.966-2.038-4.398.84-.84-2.145-2.556-1.037-3.165 4.845-1.644-.894-1.735 3.522 1.574 1.537-1.788 1.967 1.305 3.164h0l-2.682 3.844-.018 7.955-11.423 6.722h0l-4.666-.769-3.773 1.466z" stroke-width=".999" fill="#818181" stroke="#505050" class="amcharts-map-area amcharts-map-area-JP-20" aria-label="Nagano" cursor="pointer"/><path d="M1155.152 402.166l1.037 9.44-2.36 1.626 1.055 6.722-2.02 5.417-7.795 1.412-2.235 3.218-2.02-.5-1 3.021-4.238 1.663h0l-1.502-.733h0l-1.43-2.342-5.06.071-3.79-4.165 4.041-9.154-5.435-2.413.876-6.132 1.824-2.52-1.824-.787 1.037-2.754h0l18.182-10.619 8.599 2.288 2.235 3.415 1.52-.09z" stroke-width=".999" fill="#818181" stroke="#505050" class="amcharts-map-area amcharts-map-area-JP-09" aria-label="Tochigi" cursor="pointer"/><path d="M1124.581 499.384l-1.466-1.43.322-3.379 3.11 2.414-.285 2.681-1.68-.286zm-3.772 10.995l-.59 4.094-.983-1.645 1.573-2.449zm19.487-51.648l-1.806-1.77-.894.786-.536 2.79 1.823 2.36-3.2.16h0l-1.448-2.288-4.791-2.27-2.628 1.197 1.412 1.108-.876 3.665-2.413-3.378-5.435-.984-4.058-2.932h0l-3.754-2.073-2.825-5.793h0l2.807-1.823 9.815 2.735 3.074 2.896 5.078-1.394.5 1.555 2.61-.143 5.113-2.199 3.683.876h0l2.557 5.4h0l-1.77 2.27-2.038-.751zm-9.618 65.485l-2.593-.75-.393 2.914 2.539-.394.447-1.77zm9.367 44.516l.519-3.057-3.415-1.68 1.162 3.682 1.734 1.055zm0 0l.519-3.057-3.415-1.68 1.162 3.682 1.734 1.055z" stroke-width=".999" fill="#f5ff54" stroke="#505050" class="amcharts-map-area amcharts-map-area-JP-13" aria-label="Tokyo" cursor="pointer"/><path d="M1180.091 399.878l-5.56 3.575-.643 2.038h0l-6.132-1.86-1.02-1.84.215 3.146-4.594 3.379-7.205-6.168h0l-.304-3.915-1.52.09-2.234-3.415-8.6-2.289-18.199 10.62h0l-5.06-1.574h0l.502-9.314-3.111-3.379 2.091-4.559-.947-3.146 1.019-1.645 6.043-.518 1.305-2.414 5.31.054-1.198-6.06 6.596-7.688h0l2.539.876 4.487-1.108 1.734 3.003 2.2-.822 2.627 2.002 3.647-.536 2.378-2.879-.518-7.365h0l2.485 1.18 2.02-1.02 2.7 3.183 6.203.036 1.162 4.2 3.29 1.377-.573-.983 3.075-.268-.053-3.88 2.538-.16h0l2.825 6.686.983 10.78-2.503 22.58zm-6.132 5.649l.054.018h0l-.054-.018z" stroke-width=".999" fill="#818181" stroke="#505050" class="amcharts-map-area amcharts-map-area-JP-07" aria-label="Fukushima" cursor="pointer"/><path d="M1019.765 476.77l-1.287-1.234 2.234-6.15-1.483-6.043-2.932-.894.214-2.86-1.645-2.038h0l3.38-5.524 4.522 1.644 5.078-2.252 5.166.09 1.413-2.218-3.665-6.096.947-4.022h0l.483-3.272 2.77-3.397-1.876-2.503h0l2.932-3.039 2.717 1.323.75 2.825 6.651-7.849 5.095-.393.447 1.645 2.414-1.43.5 1.394 6.472 1.61h0l2.235 3.038-3.397 7.813 2.092 2.789-.697 2.807-4.166 5.077-3.397.16-1.877 3.308 4.666 2.288 2.825 4.452.357 6.043 2.932.393-1.162 2.878 1.27 1.752-1.556.519.465 2.27-1.484 2.11h0l-4.505 2.646-4.451-2.807-4.291 1.644-3.719-1.859-3.218-5.524-2.663 2.002-5.238.626-3.022 5.328-.393 3.915h0l-1.93-.215-3.022-4.47z" stroke-width=".999" fill="#818181" stroke="#505050" class="amcharts-map-area amcharts-map-area-JP-21" aria-label="Gifu"/><path d="M1155.939 356.203l.518 7.365-2.378 2.878-3.647.537-2.628-2.003-2.199.823-1.734-3.004-4.487 1.109-2.539-.876h0l-3.933-3.772 2.289-6.58-.304-5.148.93-1.466 2.824.393 2.45-1.537 1.412-2.843-5.346-3.057-1.43-2.02.268-4.094-5.882-2.288h0l2.092-5.507 5.149-5.38 4.04-14.893h0l4.487.733 2.414-1.27.357 2.093 2.7 1.59 9.976 2.736 1.037 3.218 3.164 1.752h0l3.307 5.149-1.59 5.756-2.057-.053 2.36 8.152-4.648 8.349.125 4.004-2.306 4.648-4.845 1.002.054 3.504z" stroke-width=".999" fill="#818181" stroke="#505050" class="amcharts-map-area amcharts-map-area-JP-06" aria-label="Yamagata" cursor="pointer"/><path d="M1140.296 470.262l1.948.357.304-3.164 3.129-1.162 2.7-3.862 1.448.18-4.488-5.918-1.233.518h0l-2.557-5.399h0l1.02-2.842-4.363-10.137h0l5.9 6.847 7.312 4.076 10.976-3.236 7.795 3.075 6.454 5.47h0l-.197 1.163-6.829-.09-4.863 3.701-4.487 6.668-.769 11.442-2.538 2.253-6.544.68-8.384 9.438-4.773-2.86 3.718-1.323-1.394-2.968-.018-5.291 1.788-2.2-2.02-2.86.965-2.556z" stroke-width=".999" fill="#818181" stroke="#505050" class="amcharts-map-area amcharts-map-area-JP-12" aria-label="Chiba" cursor="pointer"/><path d="M846.674 610.315l-2.074 8.635 1.484 2.092-.894 6.4-3.021 4.54-.984 6.33-3.396-.626-1.216-2.7-1.877-.465h0l1.323-2.467-.43-4.255-3.825-1.466-.894 1.037-2.36-5.989-3.629-1.055.268-3.95-6.65-6.508.858-1.788h0l7.902-.554 1.966-2.342 3.558.447-2.36-4.04 2.467-2.95-3.236-4.648-.018-4.488 3.344-1.84 5.31-9.69 2.252-.287h0l1.555 1.055 3.611-1.251 3.111 3.432 4.916-.75 2.575-2.629 2.932 1.109-.465 2.789 1.001.018h0l-6.919 8.17 1.699 2.073-2.771 1.288 1.394 1.609-1.644.643-2.092 4.97-2.771 10.101z" stroke-width=".999" fill="#818181" stroke="#505050" class="amcharts-map-area amcharts-map-area-JP-45" aria-label="Miyazaki"/><path d="M1183.452 339.344l-.733 1.27 1.502 1.322-2.253 1.341-3.057 6.472-.143 10.1h0l-2.538.161.053 3.88-3.075.268.573.983-3.29-1.376-1.162-4.201-6.204-.036-2.699-3.182-2.02 1.019-2.485-1.18h0l-.107-3.54 4.844-1.001 2.307-4.648-.126-4.005 4.649-8.349-2.36-8.152 2.056.054 1.59-5.757-3.307-5.149h0l3.63-.322 4.2-3.11h0l1.7-.25 5.72 3.95 5.238-.089.233 3.826 3.164 1.805 2.842-3.128 4.38 1.788 2.182-9.744 4.666 1.109h0l1.52 5.095-2.825-1.34-.161 2.985-2.718 2.485 1.824 1.215-.09 2.163-1.269-1.144-2.878 1.985-.054 1.287 3.075.375-2.36 2.432 1.144 2.199 1.931.34-.518 1.698-1.466-.966v2.95l-1.663-.036.84 2.235 2.378-.286-1.126.733.608 4.97-3.808-3.307 1.484-1.198-.966-1.144-2.02.679-.787-1.377-4.523.698-2.985 3.45-.125-2.467-2.432 1.162z" stroke-width=".999" fill="#818181" stroke="#505050" class="amcharts-map-area amcharts-map-area-JP-04" aria-label="Miyagi" cursor="pointer"/><path d="M1082.98 391.85l12.032-9.242 6.829-10.03 4.094-10.208 14.57-8.349 3.129-3.36 2.95-6.419.232-6.936 3.307-6.704h0l5.882 2.288-.268 4.094 1.43 2.02 5.346 3.057-1.413 2.843-2.449 1.537-2.825-.393-.93 1.466.305 5.149-2.289 6.579 3.933 3.772h0l-6.596 7.687 1.197 6.06-5.31-.053-1.304 2.414-6.043.518-1.019 1.645.947 3.146-2.091 4.56 3.11 3.378-.5 9.314h0l-5.006-4.862-1.698 3.003-2.914.5.482 3.45-1.68.27-.072 2.484-3.807 1.055-1.234 2.985-3.236.036h0l-.125-4.934-3.593-2.753-.823-4.452-1.448-.41-4.577 1.447-3.432 3.754-.465 2.95-2.485-1.144-5.685 3.11-1.698-1.233.34-3.307-5.15-.536.144 2.306-3.844 4.219h0l-1.788-7.598-2.717-1.895h0l9.69-3.54 6.418-4.898 4.147.16zm8.939-44.282l-.715 4.147 4.47-.178-2.54 7.025-4.916 3.987-5.077.912 4.791-8.26-2.467-.464-1.734 1.448.268-4.935 3.004-5.077 3.879-2.77.822-2.754 1.95-.465-1.735 7.384z" stroke-width=".999" fill="#d84b57" fill-opacity=".8" stroke="#505050" class="amcharts-map-area amcharts-map-area-JP-15" aria-label="Niigata" cursor="pointer"/><path class="app-brand-logo-white" fill="#FFF" d="M25.033 51.105h.941l3.383 8.306h-.843l-.819-2.016h-4.519l-.868 2.016h-.843l3.568-8.306zm-1.625 5.644h4.055l-1.967-4.801-2.088 4.801zm15.709-4.313l-3.493 4.226h-.196l-3.493-4.226v6.975h-.83v-8.306h.757l3.665 4.434 3.651-4.434h.77v8.306h-.831v-6.975zm7.88 5.204c1.026 0 1.747-.403 2.284-.819l.941 1.478c-.855.77-1.955 1.234-3.286 1.234-2.504 0-4.385-1.845-4.385-4.276 0-2.43 1.881-4.275 4.385-4.275 1.331 0 2.431.464 3.286 1.234l-.941 1.478c-.537-.415-1.258-.818-2.284-.818-1.404 0-2.332 1.063-2.332 2.382-.001 1.32.928 2.382 2.332 2.382zm11.385-1.539h-3.92v3.31h-2.053v-8.306h2.053v3.212h3.92v-3.212h2.052v8.306h-2.052v-3.31zm7.073-4.996h2.418l3.139 8.306h-2.076l-.562-1.527h-3.481l-.574 1.527h-2.077l3.213-8.306zm-.049 5.277h2.468l-1.209-3.249-1.259 3.249zm7.452-5.277h3.945c1.93 0 3.2.88 3.2 2.748 0 1.234-.818 2.162-1.966 2.492l2.418 2.675v.391h-2.187l-2.528-2.944h-.83v2.944h-2.052v-8.306zm2.052 1.783v2.052h1.857c.672 0 1.111-.415 1.111-1.026 0-.635-.44-1.026-1.111-1.026H74.91zm11.385.013v6.511h-2.052v-6.511H81.69v-1.795h7.084v1.795h-2.479zm4.594 4.043c.635.416 1.588.831 2.626.831.818 0 1.331-.269 1.331-.795 0-.366-.269-.586-.94-.757l-1.355-.367c-1.43-.378-2.114-1.136-2.114-2.308 0-1.418 1.087-2.553 3.322-2.553 1.185 0 2.345.33 2.993.659l-.574 1.772c-.647-.367-1.649-.672-2.504-.672-.806 0-1.149.257-1.149.66 0 .366.245.513.757.659l1.478.428c1.526.439 2.186 1.184 2.186 2.333 0 1.6-1.405 2.699-3.482 2.699-1.221 0-2.504-.416-3.053-.721l.478-1.868zm-2.282-16.309l-20.827-.004h-.001c-6.516 0-9.003-4.935-11.637-10.16-2.478-4.918-5.041-10.005-11.159-10.005-6.116 0-8.68 5.086-11.159 10.005-2.633 5.225-5.121 10.16-11.637 10.16l-.1.021a1.556 1.556 0 0 0 .003 3.111h.001c.096 0 .082-.02.096-.02 8.433 0 11.75-6.583 14.416-11.871 2.243-4.45 4.181-8.295 8.38-8.295 4.2 0 6.138 3.843 8.381 8.295 2.665 5.288 5.982 11.869 14.414 11.871 0 0 15.624.005 29.88.005v-.005c-3.287.001-6.339-1.075-9.051-3.108z"/><path fill="#1FA3DD" d="M98 40.632h-.34c-7.295 0-11.593-6.37-13.915-11.714-.634-1.459-2.431-4.912-5.418-5.437-1.08-.189-2.724-.046-4.403 1.725-.66.697-1.174 1.559-1.67 2.392-1.073 1.801-1.695 2.642-2.672 2.578-1.162-.075-1.823-1.083-2.803-2.72-.579-.966-1.177-1.965-2.022-2.743-.868-.798-2.114-1.199-3.416-1.09-1.345.109-2.55.722-3.305 1.685-.927 1.181-1.485 2.496-2.025 3.77-.089.21-.177.409-.265.612.134.261.266.523.397.785.451.894.898 1.778 1.361 2.632.114-.201.24-.398.349-.6.393-.731.713-1.484 1.022-2.212.482-1.136.937-2.209 1.609-3.065.211-.269.646-.466 1.108-.504.425-.037.833.071 1.058.278.514.473.973 1.24 1.459 2.052 1.079 1.801 2.421 4.042 5.271 4.227 3.01.187 4.469-2.281 5.547-4.09.428-.719.833-1.397 1.256-1.844.88-.928 1.427-.833 1.605-.801.979.172 2.255 1.658 3.104 3.612 3.805 8.761 9.761 13.586 16.769 13.586H98a1.556 1.556 0 0 0 0-3.114zM50.888 36.92c-2.452 2.683-5.12 3.728-9.512 3.728H30.661c-2.101 1.846-4.801 3.095-8.474 3.095h-.164c.055.006.108.017.122.02h19.187c5.283-.003 8.814-1.421 11.852-4.743a34.865 34.865 0 0 0 2.426-2.974 48.644 48.644 0 0 1-1.679-3.054 30.55 30.55 0 0 1-3.043 3.928z"/></svg>